<?xml version="1.0" encoding="UTF-8"?>
<svg xmlns="http://www.w3.org/2000/svg" xmlns:xlink="http://www.w3.org/1999/xlink" width="438px" height="56px" viewBox="0 0 438 56" version="1.1">
<g id="surface1">
<path style=" stroke:none;fill-rule:nonzero;fill:rgb(78.431374%,75.686276%,75.686276%);fill-opacity:1;" d="M 75.914062 11.886719 L 84.988281 11.886719 L 84.988281 33.652344 L 75.914062 33.652344 Z M 75.914062 11.886719 "/>
<path style=" stroke:none;fill-rule:nonzero;fill:rgb(78.431374%,75.686276%,75.686276%);fill-opacity:1;" d="M 118.371094 23.714844 L 118.371094 33.652344 L 109.875 33.652344 L 109.875 26.042969 C 109.875 24.636719 109.816406 23.667969 109.722656 23.136719 C 109.617188 22.597656 109.433594 22.199219 109.183594 21.949219 C 108.875 21.605469 108.421875 21.339844 107.835938 21.152344 C 107.269531 20.964844 106.625 20.871094 105.914062 20.871094 C 104.164062 20.871094 102.78125 21.292969 101.761719 22.136719 C 100.761719 22.972656 100.261719 24.132812 100.261719 25.621094 L 100.261719 33.652344 L 91.804688 33.652344 L 91.804688 17.324219 L 100.261719 17.324219 L 100.261719 19.714844 C 101.542969 18.769531 102.886719 18.070312 104.300781 17.621094 C 105.730469 17.164062 107.316406 16.933594 109.066406 16.933594 C 112.113281 16.933594 114.421875 17.511719 115.988281 18.667969 C 117.574219 19.824219 118.371094 21.507812 118.371094 23.714844 Z M 118.371094 23.714844 "/>
<path style=" stroke:none;fill-rule:nonzero;fill:rgb(78.431374%,75.686276%,75.686276%);fill-opacity:1;" d="M 149.3125 23.714844 L 149.3125 33.652344 L 140.816406 33.652344 L 140.816406 26.042969 C 140.816406 24.636719 140.757812 23.667969 140.664062 23.136719 C 140.554688 22.597656 140.375 22.199219 140.125 21.949219 C 139.816406 21.605469 139.363281 21.339844 138.777344 21.152344 C 138.210938 20.964844 137.566406 20.871094 136.855469 20.871094 C 135.105469 20.871094 133.722656 21.292969 132.703125 22.136719 C 131.703125 22.972656 131.203125 24.132812 131.203125 25.621094 L 131.203125 33.652344 L 122.746094 33.652344 L 122.746094 17.324219 L 131.203125 17.324219 L 131.203125 19.714844 C 132.480469 18.769531 133.828125 18.070312 135.242188 17.621094 C 136.671875 17.164062 138.257812 16.933594 140.007812 16.933594 C 143.054688 16.933594 145.363281 17.511719 146.929688 18.667969 C 148.515625 19.824219 149.3125 21.507812 149.3125 23.714844 Z M 149.3125 23.714844 "/>
<path style=" stroke:none;fill-rule:nonzero;fill:rgb(78.431374%,75.686276%,75.686276%);fill-opacity:1;" d="M 166.257812 20.667969 C 164.382812 20.667969 162.960938 21.085938 161.992188 21.917969 C 161.011719 22.742188 160.53125 23.933594 160.53125 25.496094 C 160.53125 27.070312 161.011719 28.273438 161.992188 29.105469 C 162.960938 29.929688 164.382812 30.339844 166.257812 30.339844 C 168.105469 30.339844 169.507812 29.929688 170.488281 29.105469 C 171.460938 28.273438 171.949219 27.070312 171.949219 25.496094 C 171.949219 23.933594 171.460938 22.742188 170.488281 21.917969 C 169.507812 21.085938 168.105469 20.667969 166.257812 20.667969 Z M 166.257812 16.933594 C 170.816406 16.933594 174.371094 17.695312 176.910156 19.214844 C 179.464844 20.726562 180.753906 22.820312 180.753906 25.496094 C 180.753906 28.183594 179.464844 30.289062 176.910156 31.808594 C 174.371094 33.320312 170.816406 34.074219 166.257812 34.074219 C 161.722656 34.074219 158.15625 33.320312 155.570312 31.808594 C 153.003906 30.289062 151.726562 28.183594 151.726562 25.496094 C 151.726562 22.820312 153.003906 20.726562 155.570312 19.214844 C 158.15625 17.695312 161.722656 16.933594 166.257812 16.933594 Z M 166.257812 16.933594 "/>
<path style=" stroke:none;fill-rule:nonzero;fill:rgb(78.431374%,75.686276%,75.686276%);fill-opacity:1;" d="M 180.121094 17.324219 L 188.578125 17.324219 L 195.152344 28.605469 L 201.6875 17.324219 L 210.148438 17.324219 L 199.765625 33.652344 L 190.5 33.652344 Z M 180.121094 17.324219 "/>
<path style=" stroke:none;fill-rule:nonzero;fill:rgb(78.431374%,75.686276%,75.686276%);fill-opacity:1;" d="M 222.691406 26.308594 C 220.941406 26.308594 219.625 26.496094 218.730469 26.871094 C 217.828125 27.238281 217.386719 27.777344 217.386719 28.496094 C 217.386719 29.152344 217.742188 29.667969 218.460938 30.042969 C 219.171875 30.417969 220.171875 30.605469 221.460938 30.605469 C 223.046875 30.605469 224.382812 30.257812 225.460938 29.558594 C 226.535156 28.851562 227.074219 27.964844 227.074219 26.902344 L 227.074219 26.308594 Z M 235.609375 24.339844 L 235.609375 33.652344 L 227.074219 33.652344 L 227.074219 31.230469 C 225.941406 32.222656 224.671875 32.945312 223.269531 33.402344 C 221.855469 33.847656 220.132812 34.074219 218.117188 34.074219 C 215.367188 34.074219 213.136719 33.585938 211.425781 32.605469 C 209.734375 31.617188 208.886719 30.332031 208.886719 28.746094 C 208.886719 26.839844 209.945312 25.441406 212.078125 24.542969 C 214.203125 23.648438 217.546875 23.199219 222.113281 23.199219 L 227.074219 23.199219 L 227.074219 22.792969 C 227.074219 21.972656 226.546875 21.367188 225.496094 20.980469 C 224.441406 20.597656 222.804688 20.402344 220.578125 20.402344 C 218.777344 20.402344 217.097656 20.519531 215.539062 20.746094 C 213.972656 20.964844 212.523438 21.300781 211.195312 21.746094 L 211.195312 17.761719 C 213.011719 17.492188 214.828125 17.289062 216.65625 17.152344 C 218.472656 17.007812 220.289062 16.933594 222.113281 16.933594 C 226.882812 16.933594 230.3125 17.519531 232.417969 18.683594 C 234.542969 19.839844 235.609375 21.726562 235.609375 24.339844 Z M 235.609375 24.339844 "/>
<path style=" stroke:none;fill-rule:nonzero;fill:rgb(78.431374%,75.686276%,75.686276%);fill-opacity:1;" d="M 248.75 11.886719 L 281.199219 11.886719 L 281.199219 16.121094 L 269.511719 16.121094 L 269.511719 33.652344 L 260.4375 33.652344 L 260.4375 16.121094 L 248.75 16.121094 Z M 248.75 11.886719 "/>
<path style=" stroke:none;fill-rule:nonzero;fill:rgb(78.431374%,75.686276%,75.686276%);fill-opacity:1;" d="M 305.96875 25.449219 L 305.96875 26.933594 L 286.246094 26.933594 C 286.449219 28.152344 287.148438 29.070312 288.359375 29.683594 C 289.589844 30.300781 291.300781 30.605469 293.511719 30.605469 C 295.300781 30.605469 297.125 30.445312 298.972656 30.121094 C 300.835938 29.789062 302.757812 29.292969 304.738281 28.636719 L 304.738281 32.667969 C 302.738281 33.128906 300.742188 33.476562 298.742188 33.714844 C 296.742188 33.953125 294.742188 34.074219 292.742188 34.074219 C 287.976562 34.074219 284.257812 33.324219 281.59375 31.824219 C 278.949219 30.324219 277.632812 28.214844 277.632812 25.496094 C 277.632812 22.839844 278.921875 20.753906 281.515625 19.230469 C 284.132812 17.699219 287.714844 16.933594 292.28125 16.933594 C 296.433594 16.933594 299.75 17.707031 302.238281 19.246094 C 304.71875 20.789062 305.96875 22.855469 305.96875 25.449219 Z M 297.28125 23.714844 C 297.28125 22.714844 296.800781 21.914062 295.859375 21.308594 C 294.933594 20.707031 293.722656 20.402344 292.242188 20.402344 C 290.601562 20.402344 289.265625 20.691406 288.246094 21.261719 C 287.214844 21.824219 286.574219 22.644531 286.324219 23.714844 Z M 297.28125 23.714844 "/>
<path style=" stroke:none;fill-rule:nonzero;fill:rgb(78.431374%,75.686276%,75.686276%);fill-opacity:1;" d="M 331.335938 17.839844 L 331.335938 22.089844 C 330.183594 21.601562 329.027344 21.242188 327.875 21.011719 C 326.722656 20.785156 325.511719 20.667969 324.261719 20.667969 C 321.898438 20.667969 320.070312 21.097656 318.761719 21.949219 C 317.457031 22.792969 316.800781 23.976562 316.800781 25.496094 C 316.800781 27.027344 317.457031 28.222656 318.761719 29.074219 C 320.070312 29.917969 321.898438 30.339844 324.261719 30.339844 C 325.585938 30.339844 326.847656 30.222656 328.027344 29.980469 C 329.203125 29.742188 330.308594 29.382812 331.335938 28.902344 L 331.335938 33.167969 C 330 33.472656 328.652344 33.691406 327.296875 33.839844 C 325.933594 33.996094 324.578125 34.074219 323.222656 34.074219 C 318.457031 34.074219 314.726562 33.320312 312.035156 31.808594 C 309.34375 30.300781 307.996094 28.195312 307.996094 25.496094 C 307.996094 22.808594 309.34375 20.710938 312.035156 19.199219 C 314.726562 17.691406 318.457031 16.933594 323.222656 16.933594 C 324.605469 16.933594 325.960938 17.011719 327.296875 17.167969 C 328.625 17.316406 329.96875 17.539062 331.335938 17.839844 Z M 331.335938 17.839844 "/>
<path style=" stroke:none;fill-rule:nonzero;fill:rgb(78.431374%,75.686276%,75.686276%);fill-opacity:1;" d="M 365.351562 23.714844 L 365.351562 33.652344 L 356.855469 33.652344 L 356.855469 26.074219 C 356.855469 24.648438 356.796875 23.667969 356.703125 23.136719 C 356.597656 22.597656 356.414062 22.199219 356.164062 21.949219 C 355.855469 21.605469 355.402344 21.339844 354.816406 21.152344 C 354.25 20.964844 353.605469 20.871094 352.894531 20.871094 C 351.144531 20.871094 349.761719 21.292969 348.742188 22.136719 C 347.742188 22.972656 347.242188 24.132812 347.242188 25.621094 L 347.242188 33.652344 L 338.785156 33.652344 L 338.785156 10.964844 L 347.242188 10.964844 L 347.242188 19.714844 C 348.523438 18.769531 349.867188 18.070312 351.28125 17.621094 C 352.710938 17.164062 354.296875 16.933594 356.046875 16.933594 C 359.09375 16.933594 361.402344 17.511719 362.96875 18.667969 C 364.554688 19.824219 365.351562 21.507812 365.351562 23.714844 Z M 365.351562 23.714844 "/>
</g>
</svg>
